<?xml version="1.0" encoding="iso-8859-1"?>
<!-- Uploaded to: SVG Repo, www.svgrepo.com, Generator: SVG Repo Mixer Tools -->
<!DOCTYPE svg PUBLIC "-//W3C//DTD SVG 1.1//EN" "http://www.w3.org/Graphics/SVG/1.1/DTD/svg11.dtd">
<svg fill="#000000" height="800px" width="800px" version="1.1" id="Capa_1" xmlns="http://www.w3.org/2000/svg" xmlns:xlink="http://www.w3.org/1999/xlink" 
	 viewBox="0 0 216.951 216.951" xml:space="preserve">
<path d="M216.951,113.771c0-6.206-2.738-11.934-7.297-15.806c0.317-5.797-1.804-11.585-6.036-15.819
	c-3.913-3.912-9.117-6.066-14.654-6.066c-0.386,0-0.77,0.01-1.152,0.031c-1.909-2.172-4.248-3.914-6.852-5.126
	c-20.389-45.83-44.775-69.069-72.484-69.069c-27.706,0-52.09,23.235-72.478,69.056c-2.622,1.216-4.972,2.969-6.887,5.158
	c-0.522-0.04-1.047-0.059-1.575-0.059c-5.542,0-10.751,2.158-14.67,6.076c-4.354,4.354-6.472,10.309-6.02,16.243
	C2.566,102.266,0,107.836,0,113.771c0,5.935,2.566,11.505,6.846,15.381c-0.452,5.934,1.665,11.889,6.02,16.243
	c3.374,3.375,7.709,5.434,12.387,5.943c4.617,3.95,10.743,9.839,16.901,17.676c11.416,14.531,10.909,38.067,10.903,38.291
	c-0.063,2.028,0.699,3.995,2.112,5.452c1.412,1.457,3.354,2.279,5.384,2.279h95.846c2.024,0,3.963-0.825,5.375-2.276
	c1.412-1.451,2.177-3.417,2.122-5.441c-0.007-0.236-0.514-23.772,10.902-38.303c6.178-7.863,12.383-13.802,17.035-17.771
	c4.446-0.613,8.558-2.621,11.786-5.849c4.231-4.232,6.353-10.02,6.035-15.817C214.213,125.706,216.951,119.978,216.951,113.771z
	 M172.228,126.161c-6.832,0-12.391-5.558-12.391-12.39s5.559-12.39,12.391-12.39s12.39,5.558,12.39,12.39
	S179.06,126.161,172.228,126.161z M44.724,126.161c-6.832,0-12.39-5.558-12.39-12.39s5.558-12.39,12.39-12.39
	s12.391,5.558,12.391,12.39S51.556,126.161,44.724,126.161z M109.24,116.067c-8.158,0-14.796-6.637-14.796-14.795
	c0-8.159,6.638-14.796,14.796-14.796s14.796,6.637,14.796,14.796C124.036,109.429,117.398,116.067,109.24,116.067z M128.001,59.928
	c-0.563,0-1.125,0.021-1.684,0.063c-4.184-4.955-10.402-7.945-17.077-7.945c-6.716,0-12.938,2.998-17.115,7.975
	c-0.712-0.068-1.43-0.102-2.152-0.102c-5.97,0-11.581,2.324-15.803,6.545c-3.024,3.024-5.044,6.766-5.969,10.755
	c-2.143-0.735-4.408-1.139-6.741-1.139c-0.385,0-0.769,0.01-1.151,0.031c-2.09-2.378-4.698-4.239-7.604-5.454
	c13.809-28.671,32.737-53.741,55.771-53.741c23.032,0,41.958,25.066,55.768,53.734c-2.92,1.218-5.535,3.087-7.629,5.479
	c-0.522-0.04-1.047-0.059-1.575-0.059c-1.851,0-3.657,0.262-5.398,0.728c-0.966-3.838-2.948-7.427-5.855-10.334
	C139.572,62.249,133.967,59.928,128.001,59.928z"/>
</svg>